<svg width="84" height="32" viewBox="0 0 84 32" fill="none" xmlns="http://www.w3.org/2000/svg">
<path d="M25.3625 1.03448H20.607C20.3313 1.03448 20.0901 1.13793 19.9867 1.37931L12.9569 18.9655L5.85817 1.37931C5.7548 1.13793 5.51358 1.03448 5.2379 1.03448H0.516898C0.206759 1.03448 0 1.24138 0 1.55172V24.6552C0 24.9655 0.206759 25.1724 0.516898 25.1724H4.82438C5.13452 25.1724 5.34128 24.9655 5.34128 24.6552V11L5.78926 12.6552L10.4069 24.7586C10.5103 25.0345 10.7859 25.1724 11.0616 25.1724H14.8522C15.1279 25.1724 15.3691 25.0345 15.4725 24.7586L20.0901 12.6552L20.5381 11.0345V24.6552C20.5381 24.9655 20.7448 25.1724 21.055 25.1724H25.3625C25.6726 25.1724 25.8794 24.9655 25.8794 24.6552V1.55172C25.8794 1.24138 25.6726 1.03448 25.3625 1.03448Z" fill="black"/>
<path d="M44.3428 8.27586H40.8279C40.5178 8.27586 40.3455 8.48276 40.311 8.7931L40.1387 10.3448C39.0016 8.89655 37.4164 7.93104 35.2799 7.93104C30.5589 7.93104 27.1129 11.8276 27.1129 16.7586C27.1129 21.5862 30.5589 25.4138 35.2799 25.4138C37.4853 25.4138 39.036 24.5172 40.1043 23.2069L40.311 24.6552C40.3455 24.9655 40.5178 25.1724 40.8279 25.1724H44.3428C44.653 25.1724 44.8597 24.9655 44.8597 24.6552V8.7931C44.8597 8.48276 44.653 8.27586 44.3428 8.27586ZM35.9002 20.6897C33.6947 20.6897 32.0751 19.069 32.0751 16.7241C32.0751 14.3103 33.6947 12.6552 35.9002 12.6552C38.1745 12.6552 39.6907 14.4483 39.6907 16.7241C39.6907 19.0345 38.1745 20.6897 35.9002 20.6897Z" fill="black"/>
<path d="M63.0989 8.27586H59.3428C59.0327 8.27586 58.8604 8.48276 58.8259 8.7931L58.7225 10.1379C57.5165 8.7931 55.8968 7.89655 53.8982 7.89655C49.2116 7.89655 45.7656 11.8276 45.7656 16.5862C45.7656 21.3448 49.2116 25.2759 53.8982 25.2759C56.0347 25.2759 57.6887 24.3448 58.8604 23V24.5862C58.8604 27.1724 56.0002 27.7931 54.2083 27.7931C52.2096 27.7931 50.59 27.4138 49.0049 26.4828C48.6947 26.3103 48.5224 26.4138 48.3157 26.6897L46.9717 29.1035C46.8339 29.3793 46.8684 29.6207 47.1096 29.7931C48.9015 31.1035 51.6583 32 54.6218 32C58.4813 32 63.6158 30.4483 63.6158 25.0345V8.7931C63.6158 8.48276 63.4091 8.27586 63.0989 8.27586ZM54.5529 20.5517C52.3475 20.5517 50.7279 18.7586 50.7279 16.5517C50.7279 14.3793 52.3475 12.5862 54.5529 12.5862C56.7239 12.5862 58.3435 14.4828 58.3435 16.5517C58.3435 18.6207 56.7239 20.5517 54.5529 20.5517Z" fill="black"/>
<path d="M65.3728 0.51724V24.6552C65.3728 24.9655 65.5795 25.1724 65.8897 25.1724H70.0248C70.335 25.1724 70.5417 24.9655 70.5417 24.6552V0.51724C70.5417 0.206895 70.335 0 70.0248 0H65.8897C65.5795 0 65.3728 0.206895 65.3728 0.51724Z" fill="black"/>
<path d="M83.7641 8.75862C83.2816 8.31034 82.4202 7.89655 81.4208 7.89655C79.3532 7.89655 77.9404 9.10345 77.0789 10.7586L76.941 8.7931C76.9066 8.48276 76.7343 8.27586 76.4241 8.27586H72.4613C72.1511 8.27586 71.9444 8.48276 71.9444 8.7931V24.6552C71.9444 24.9655 72.1511 25.1724 72.4613 25.1724H76.5964C76.9066 25.1724 77.1133 24.9655 77.1133 24.6552V16.2414C77.1133 14.1724 78.3883 12.5862 80.5249 12.5862C81.1796 12.5862 81.5931 12.7586 81.9377 12.8621C82.3512 12.9655 82.6614 12.8966 82.7992 12.4828L83.9364 9.51724C84.0398 9.27586 84.0398 9 83.7641 8.75862Z" fill="black"/>
</svg>
